<svg xmlns="http://www.w3.org/2000/svg" version="1.1" xmlns:xlink="http://www.w3.org/1999/xlink" xmlns:svgjs="http://svgjs.dev/svgjs" width="2000" height="570" viewBox="0 0 2000 570"><g transform="matrix(1,0,0,1,-1.2121212121212466,0.5702302514895337)"><svg viewBox="0 0 396 113" data-background-color="#ffffff" preserveAspectRatio="xMidYMid meet" height="570" width="2000" xmlns="http://www.w3.org/2000/svg" xmlns:xlink="http://www.w3.org/1999/xlink"><g id="tight-bounds" transform="matrix(1,0,0,1,0.2400000000000091,-0.11304564634792769)"><svg viewBox="0 0 395.52 113.22609129269586" height="113.22609129269586" width="395.52"><g><svg viewBox="0 0 612.4588814387055 175.32950349616013" height="113.22609129269586" width="395.52"><g><rect width="6.496032949265163" height="127.50083286081107" x="193.43752663272528" y="23.914335317674528" fill="#5314a4" opacity="1" stroke-width="0" stroke="transparent" fill-opacity="1" class="rect-o-0" data-fill-palette-color="primary" rx="1%" id="o-0" data-palette-color="#5314a4"></rect></g><g transform="matrix(1,0,0,1,216.93888143870552,24.231501568572064)"><svg viewBox="0 0 395.52 126.866500359016" height="126.866500359016" width="395.52"><g id="textblocktransform"><svg viewBox="0 0 395.52 126.866500359016" height="126.866500359016" width="395.52" id="textblock"><g><svg viewBox="0 0 395.52 72.03325139664804" height="72.03325139664804" width="395.52"><g transform="matrix(1,0,0,1,0,0)"><svg width="395.52" viewBox="1.8300000429153442 -38.790000915527344 218.49000549316406 39.790000915527344" height="72.03325139664804" data-palette-color="#5314a4"><g class="wordmark-text-0" data-fill-palette-color="primary" id="text-0"><path d="M13.79-0.32L13.79-0.32Q12.52 0.49 10.95 0.49 9.38 0.49 8.13-0.29L8.13-0.29Q6.88 0.49 5.82 0.49 4.76 0.49 4.08 0.31 3.39 0.12 2.88-0.2L2.88-0.2Q1.83-0.83 1.83-1.78L1.83-1.78Q1.83-2.27 2.1-2.64L2.1-2.64Q2.64-2.22 3.47-2.22L3.47-2.22Q5.64-2.22 6.47-4.08L6.47-4.08 6.47-16.02Q6.47-17.14 6.01-17.68L6.01-17.68Q5.27-18.58 3.49-19.46L3.49-19.46Q5.15-20.21 5.64-20.8L5.64-20.8Q6.47-21.75 6.47-22.95L6.47-22.95 6.47-33.25Q5.64-35.13 3.47-35.13L3.47-35.13Q2.64-35.13 2.1-34.72L2.1-34.72Q1.83-35.08 1.83-35.56 1.83-36.04 2.11-36.45 2.39-36.87 2.88-37.16L2.88-37.16Q4-37.84 5.46-37.84 6.91-37.84 8.13-37.04L8.13-37.04Q9.4-37.84 10.95-37.84 12.5-37.84 13.75-37.06L13.75-37.06Q16.16-38.09 19.2-38.09 22.24-38.09 24.46-37.38 26.68-36.67 28.47-35.4L28.47-35.4Q32.18-32.76 33.37-28.44L33.37-28.44Q33.86-26.76 35.69-25.68L35.69-25.68Q33.81-24.63 33.18-22.51 32.54-20.39 31.07-18.57 29.59-16.75 27.69-15.53L27.69-15.53Q23.8-13.04 19.43-13.04L19.43-13.04Q17.53-13.04 15.45-13.53L15.45-13.53 15.45-4.2Q16.11-2.78 18.16-2.34L18.16-2.34Q18.7-2.22 19.36-2.22 20.02-2.22 20.56-2.64L20.56-2.64Q20.83-2.27 20.83-1.79 20.83-1.32 20.47-0.9 20.12-0.49 19.53-0.2L19.53-0.2Q18.24 0.49 16.7 0.49 15.16 0.49 13.79-0.32ZM15.45-31.03L15.45-19.9Q15.45-18.24 16.67-17.24L16.67-17.24Q17.8-16.31 19.56-16.31L19.56-16.31Q22.24-16.31 23.44-18.36L23.44-18.36Q23.85-19.07 23.85-20.09L23.85-20.09 23.85-31.13Q23.85-32.89 22.51-33.89L22.51-33.89Q21.29-34.81 20.08-34.81 18.87-34.81 18.1-34.58 17.33-34.35 16.75-33.89L16.75-33.89Q15.45-32.86 15.45-31.03L15.45-31.03ZM25.44-17.38L25.44-17.38Q26-17.48 26.6-18.75 27.2-20.02 27.5-21.74 27.81-23.46 28.27-24.28 28.74-25.1 29.76-25.44L29.76-25.44Q28.08-26 27.64-28.43 27.2-30.86 26.6-32.01 26-33.15 25.44-33.25L25.44-33.25Q26.34-31.23 26.34-25.44L26.34-25.44Q26.34-21.58 25.95-19.63 25.56-17.68 25.44-17.38ZM8.81-9.64L8.81-6.47Q10.03-6.93 10.16-9.67L10.16-9.67Q10.3-12.4 10.3-17.24 10.3-22.07 10.29-23.67 10.28-25.27 10.25-26.25L10.25-26.25Q10.18-29.13 9.7-29.72 9.23-30.32 8.81-30.52L8.81-30.52Q8.81-22.02 8.52-20.85L8.52-20.85Q8.18-19.87 6.86-19.46L6.86-19.46Q8.33-18.95 8.52-18.21L8.52-18.21Q8.81-17.04 8.81-9.64L8.81-9.64ZM43.31-3.61Q41.28-5.71 40.02-8.67 38.77-11.62 38.47-14.26 38.18-16.89 37.58-17.91 36.98-18.92 35.89-19.46L35.89-19.46Q38.01-20.46 38.39-23.57 38.77-26.68 40.11-29.39 41.45-32.1 43.53-34.03L43.53-34.03Q47.9-38.09 54.05-38.09L54.05-38.09Q60.37-38.09 64.52-34.33L64.52-34.33Q68.85-30.42 69.6-23.39L69.6-23.39Q69.92-20.46 72.09-19.46L72.09-19.46Q69.97-18.41 69.58-15.01 69.19-11.62 68.04-8.67 66.89-5.71 64.96-3.61L64.96-3.61Q60.94 0.73 54.07 0.73L54.07 0.73Q47.51 0.73 43.31-3.61L43.31-3.61ZM51.29-19.46L51.29-19.46Q48.61-18.16 48.61-15.23L48.61-15.23 48.61-7.98Q48.61-4 51.9-2.88L51.9-2.88Q52.88-2.54 54.03-2.54 55.17-2.54 56.14-2.88 57.1-3.22 57.81-3.91L57.81-3.91Q59.27-5.32 59.27-7.98L59.27-7.98 59.27-15.23Q59.27-18.16 56.64-19.46L56.64-19.46Q59.27-20.68 59.27-23.39L59.27-23.39 59.27-29.22Q59.27-31.93 57.69-33.45L57.69-33.45Q56.2-34.84 54-34.84L54-34.84Q50.27-34.84 49.02-31.71L49.02-31.71Q48.61-30.66 48.61-29.22L48.61-29.22 48.61-23.39Q48.61-20.63 51.29-19.46ZM61.52-30.52L61.52-30.52Q62.2-28.47 62.2-23.46L62.2-23.46Q62.2-20.63 61.96-20.36 61.72-20.09 61.47-19.92L61.47-19.92Q61.03-19.63 60.52-19.46L60.52-19.46Q61.98-18.8 62.06-18.19L62.06-18.19Q62.3-15.8 62.3-14.05 62.3-12.3 62.25-11.24 62.2-10.18 62.11-9.28L62.11-9.28Q61.91-7.35 61.62-6.47L61.62-6.47Q63.52-7.06 63.74-12.11L63.74-12.11Q63.86-14.94 63.86-18.42 63.86-21.9 63.79-23.65 63.72-25.39 63.57-26.51L63.57-26.51Q63.28-29.1 62.35-30.1L62.35-30.1Q62.08-30.4 61.52-30.52ZM43.92-6.47L43.92-6.47Q44.28-6.62 44.28-6.98L44.28-6.98Q44.28-7.52 43.77-8.67L43.77-8.67Q42.48-11.62 42.48-19.46L42.48-19.46Q42.48-25.17 43.85-29.17L43.85-29.17Q44.02-29.79 44.02-30.1 44.02-30.42 43.7-30.52L43.7-30.52Q42.55-29.08 42.06-27.66L42.06-27.66Q41.16-25.07 40.62-20.65L40.62-20.65Q40.55-20.02 39.18-19.46L39.18-19.46Q40.55-18.85 40.62-18.21L40.62-18.21Q41.5-10.64 42.87-8.11L42.87-8.11Q43.33-7.2 43.92-6.47ZM81.81-0.95L81.81-0.95Q79.85 1 78.1 1L78.1 1Q76.97 1 76.58 0.17L76.58 0.17Q77.14-0.51 77.14-1.88L77.14-1.88 77.14-2.25Q77.14-2.39 77.12-2.51L77.12-2.51Q75.9-3.61 75.9-5.11 75.9-6.62 77.31-8.18L77.31-8.18Q76.9-9.01 76.9-9.95 76.9-10.89 77.18-11.71 77.46-12.52 77.95-13.13L77.95-13.13Q78.97-14.48 79.96-14.48 80.95-14.48 81.37-13.7L81.37-13.7Q80.49-12.77 80.49-10.79 80.49-8.81 81.06-7.35 81.64-5.88 82.69-4.83L82.69-4.83Q84.93-2.54 88.42-2.54L88.42-2.54Q90.77-2.54 92.4-3.88L92.4-3.88Q94.16-5.32 94.16-7.81L94.16-7.81Q94.16-9.57 93.33-10.67L93.33-10.67Q92.04-12.38 89.28-14.28L89.28-14.28Q87.15-15.77 85.88-15.77L85.88-15.77Q84.59-15.77 83.03-14.72L83.03-14.72Q83.44-15.97 83.44-17.04L83.44-17.04Q83.44-17.29 82.98-17.68L82.98-17.68 82.08-18.48Q77.8-22.41 77.02-25.78L77.02-25.78Q76.75-26.95 76.75-28.72 76.75-30.49 77.62-32.31 78.49-34.13 80-35.4L80-35.4Q83.15-38.09 88.01-38.09L88.01-38.09Q90.96-38.09 93.43-37.13L93.43-37.13Q94.48-36.72 95.82-36.72L95.82-36.72Q96.38-36.72 96.83-36.78 97.29-36.84 97.63-37.28L97.63-37.28Q97.94-37.74 97.94-38.11 97.94-38.48 97.85-38.72L97.85-38.72Q98.02-38.79 98.32-38.79 98.63-38.79 98.99-38.59 99.36-38.38 99.65-38.01L99.65-38.01Q100.31-37.18 100.31-36.15 100.31-35.11 99.73-34.57L99.73-34.57Q100.56-33.84 100.56-32.3L100.56-32.3Q100.56-30.79 99.53-29.76L99.53-29.76Q99.73-29.1 99.73-28.58 99.73-28.05 99.54-27.58 99.36-27.1 99.04-26.76L99.04-26.76Q98.33-26 97.7-26L97.7-26Q96.7-26 96.02-26.34L96.02-26.34Q96.43-27.32 96.43-28.44 96.43-29.57 95.93-30.75 95.43-31.93 94.53-32.81L94.53-32.81Q92.62-34.62 89.55-34.62L89.55-34.62Q87.59-34.62 86.35-33.42L86.35-33.42Q85.18-32.3 85.18-30.71L85.18-30.71Q85.18-29.52 85.76-28.71L85.76-28.71Q86.79-27.32 89.01-25.83L89.01-25.83 90.18-25.05Q91.16-24.44 91.5-24.44 91.84-24.44 92.18-24.51 92.52-24.58 92.94-24.71L92.94-24.71Q93.82-25 94.65-25.54L94.65-25.54 94.33-24.17Q94.18-23.49 94.18-23.17L94.18-23.17Q94.18-22.66 94.7-22.24L94.7-22.24Q99.26-18.29 100.8-15.63L100.8-15.63Q102.14-13.31 102.14-10.62 102.14-7.93 101.26-6.01 100.39-4.08 98.7-2.59L98.7-2.59Q94.99 0.73 89.06 0.73L89.06 0.73Q84.88 0.73 81.81-0.95ZM80.15-30.52L80.15-30.52Q79.22-30.13 79.22-28.49L79.22-28.49Q79.22-25.15 83.69-21.14L83.69-21.14 85.15-19.82Q85.91-19.14 85.82-18.77 85.74-18.41 85.68-18.19 85.62-17.97 85.54-17.77 85.47-17.58 85.44-17.48L85.44-17.48Q86.3-17.99 86.84-17.99L86.84-17.99Q87.91-17.99 88.86-17.41L88.86-17.41Q93.57-14.48 95.26-12.18L95.26-12.18Q96.48-10.5 96.53-7.98L96.53-7.98Q96.53-7.08 96.41-6.47L96.41-6.47Q97.7-7.3 97.7-9.11L97.7-9.11Q97.7-10.86 97.22-11.82 96.75-12.77 96.11-13.51 95.48-14.26 94.47-15.14 93.45-16.02 91.96-17.04L91.96-17.04 88.5-19.41Q84.22-22.22 82-25.34L82-25.34Q80.05-28.1 80.15-30.52ZM117.42-0.27L117.42-0.27Q116.2 0.49 114.67 0.49 113.13 0.49 112.03-0.29L112.03-0.29Q110.78 0.49 109.73 0.49 108.68 0.49 108 0.31 107.32 0.12 106.83-0.2L106.83-0.2Q105.75-0.83 105.75-1.78L105.75-1.78Q105.75-2.27 106.02-2.64L106.02-2.64Q106.56-2.22 107.39-2.22L107.39-2.22Q109.56-2.22 110.39-4.08L110.39-4.08 110.39-16.02Q110.39-17.92 108.49-18.9L108.49-18.9 107.41-19.46Q109.59-20.46 110.15-21.63L110.15-21.63Q110.39-22.17 110.39-22.95L110.39-22.95 110.39-33.25Q109.56-35.13 107.39-35.13L107.39-35.13Q106.56-35.13 106.02-34.72L106.02-34.72Q105.75-35.08 105.75-35.56 105.75-36.04 106.03-36.45 106.32-36.87 106.83-37.16L106.83-37.16Q107.93-37.84 109.36-37.84 110.78-37.84 112.03-37.06L112.03-37.06Q113.13-37.84 114.68-37.84 116.23-37.84 117.42-37.06L117.42-37.06Q118.57-37.84 119.99-37.84L119.99-37.84Q122.06-37.84 122.94-36.45L122.94-36.45Q123.23-36.01 123.23-35.52 123.23-35.03 122.94-34.72L122.94-34.72Q122.4-35.13 121.6-35.13L121.6-35.13Q119.72-35.13 119.08-33.3L119.08-33.3 119.08-20.41 130.63-20.41 130.63-33.3Q130-35.13 128.12-35.13L128.12-35.13Q127.31-35.13 126.77-34.72L126.77-34.72Q126.48-35.03 126.48-35.52 126.48-36.01 126.76-36.45 127.04-36.89 127.48-37.21L127.48-37.21Q128.41-37.84 129.73-37.84L129.73-37.84Q131.14-37.84 132.29-37.06L132.29-37.06Q133.54-37.84 135.06-37.84 136.59-37.84 137.69-37.06L137.69-37.06Q138.88-37.84 139.96-37.84 141.03-37.84 141.72-37.66 142.4-37.48 142.91-37.16L142.91-37.16Q143.96-36.52 143.96-35.57L143.96-35.57Q143.96-35.08 143.69-34.72L143.69-34.72Q143.16-35.13 142.33-35.13L142.33-35.13Q140.15-35.13 139.32-33.25L139.32-33.25 139.32-22.95Q139.32-21.04 141.2-20L141.2-20Q141.74-19.7 142.3-19.46L142.3-19.46Q140.84-18.75 140.32-18.31L140.32-18.31Q139.32-17.38 139.32-16.02L139.32-16.02 139.32-4.08Q140.15-2.22 142.33-2.22L142.33-2.22Q143.16-2.22 143.69-2.64L143.69-2.64Q143.96-2.27 143.96-1.79 143.96-1.32 143.68-0.9 143.4-0.49 142.91-0.2L142.91-0.2Q141.79 0.49 140.34 0.49 138.88 0.49 137.69-0.29L137.69-0.29Q136.59 0.49 135.06 0.49 133.54 0.49 132.29-0.29L132.29-0.29Q131.14 0.49 129.73 0.49L129.73 0.49Q127.65 0.49 126.75-0.9L126.75-0.9Q126.48-1.34 126.48-1.83 126.48-2.32 126.77-2.64L126.77-2.64Q127.31-2.22 128.12-2.22L128.12-2.22Q130-2.22 130.63-4.05L130.63-4.05 130.63-16.92 119.08-16.92 119.08-4.05Q119.72-2.22 121.6-2.22L121.6-2.22Q122.4-2.22 122.94-2.64L122.94-2.64Q123.23-2.32 123.23-1.83 123.23-1.34 122.95-0.9 122.67-0.46 122.21-0.15L122.21-0.15Q121.33 0.49 119.99 0.49L119.99 0.49Q118.6 0.49 117.42-0.27ZM132.66-24.69Q132.63-22.07 132.63-16.02 132.63-9.96 132.81-8.89L132.81-8.89Q133.12-6.84 134.07-6.47L134.07-6.47 134.07-9.64Q134.07-16.14 134.17-16.98 134.27-17.82 134.37-18.16L134.37-18.16Q134.59-19.02 135.86-19.46L135.86-19.46Q134.73-19.8 134.37-20.85L134.37-20.85Q134.07-22.02 134.07-30.52L134.07-30.52Q133.12-30.08 132.9-28.76L132.9-28.76Q132.68-27.32 132.66-24.69ZM112.74-9.64L112.74-6.47Q113.91-6.93 114.06-9.67L114.06-9.67Q114.18-12.4 114.18-17.24 114.18-22.07 114.16-23.67 114.15-25.27 114.13-26.25L114.13-26.25Q114.06-29.1 113.6-29.71 113.15-30.32 112.74-30.52L112.74-30.52Q112.74-22.02 112.44-20.85L112.44-20.85Q112.1-19.87 110.78-19.46L110.78-19.46Q112.25-18.95 112.44-18.21L112.44-18.21Q112.74-17.04 112.74-9.64L112.74-9.64ZM156.85 0.49L156.85 0.49Q155.24 0.49 153.99-0.29L153.99-0.29Q152.75 0.49 151.69 0.49 150.62 0.49 149.94 0.31 149.26 0.12 148.74-0.2L148.74-0.2Q147.7-0.83 147.7-1.78L147.7-1.78Q147.7-2.27 147.96-2.64L147.96-2.64Q148.5-2.22 149.33-2.22L149.33-2.22Q151.5-2.22 152.33-4.08L152.33-4.08 152.33-16.02Q152.33-17.11 151.87-17.7L151.87-17.7Q151.14-18.65 149.36-19.51L149.36-19.51Q150.99-20.26 151.5-20.83L151.5-20.83Q152.33-21.78 152.33-22.95L152.33-22.95 152.33-33.25Q151.5-35.13 149.33-35.13L149.33-35.13Q148.5-35.13 147.96-34.72L147.96-34.72Q147.7-35.08 147.7-35.56 147.7-36.04 147.98-36.45 148.26-36.87 148.74-37.16L148.74-37.16Q149.87-37.84 151.32-37.84 152.77-37.84 153.99-37.04L153.99-37.04Q155.26-37.84 156.83-37.84L156.83-37.84Q158.53-37.84 159.8-36.94L159.8-36.94Q162.51-38.09 165.2-38.09 167.89-38.09 170.09-37.56 172.3-37.04 174.09-36.08L174.09-36.08Q177.97-34.03 178.92-30.76L178.92-30.76Q179.46-28.96 181.24-28.08L181.24-28.08Q179.26-26.71 178.8-24.95L178.8-24.95Q177.77-21.09 174.65-19.92L174.65-19.92Q179.24-18.65 180.63-13.92L180.63-13.92Q181.12-12.23 182.95-11.16L182.95-11.16Q181.07-10.11 180.43-7.98 179.8-5.86 178.2-4.16 176.6-2.47 174.48-1.37L174.48-1.37Q170.38 0.73 165.22 0.73L165.22 0.73Q162.15 0.73 159.73-0.37L159.73-0.37Q158.46 0.49 156.85 0.49ZM161.32-21.09L165.88-21.09Q168.03-21.09 168.94-22.12L168.94-22.12Q169.89-23.17 169.89-25.73L169.89-25.73 169.89-31.37Q169.89-32.86 168.32-33.89L168.32-33.89Q166.96-34.79 165.8-34.79 164.64-34.79 163.89-34.51 163.15-34.23 162.56-33.74L162.56-33.74Q161.32-32.71 161.32-31.27L161.32-31.27 161.32-21.09ZM171.28-34.23L171.28-34.23Q172.11-32.37 172.11-28.81L172.11-28.81Q172.11-23.56 171.43-22L171.43-22Q172.45-22.19 173.16-23.97L173.16-23.97Q173.43-24.63 173.56-25.37 173.7-26.1 173.78-26.5 173.87-26.9 174.04-27.2L174.04-27.2Q174.4-27.81 175.36-28.13L175.36-28.13Q174.38-28.44 174.14-28.81L174.14-28.81Q173.82-29.22 173.62-30.32 173.43-31.42 173.16-32.12 172.89-32.81 172.57-33.25L172.57-33.25Q171.96-34.13 171.28-34.23ZM154.68-9.64L154.68-6.47Q155.9-6.93 156.02-9.67L156.02-9.67Q156.17-12.4 156.17-17.24 156.17-22.07 156.15-23.67 156.14-25.27 156.12-26.25L156.12-26.25Q156.04-29.13 155.57-29.72 155.09-30.32 154.68-30.52L154.68-30.52Q154.68-22.02 154.38-20.85L154.38-20.85Q154.04-19.87 152.72-19.46L152.72-19.46Q154.19-18.95 154.38-18.21L154.38-18.21Q154.68-17.04 154.68-9.64L154.68-9.64ZM161.32-18.02L161.32-6.37Q161.32-4.66 162.61-3.56L162.61-3.56Q163.86-2.54 165.59-2.54L165.59-2.54Q167.28-2.54 168.42-3.27L168.42-3.27Q170.62-4.71 170.62-6.57L170.62-6.57 170.62-13.72Q170.62-15.94 169.18-17.07L169.18-17.07Q167.96-18.02 165.98-18.02L165.98-18.02 161.32-18.02ZM172.26-17.26L172.26-17.26Q172.84-15.94 172.84-11.16L172.84-11.16Q172.84-5.1 172.4-4.05L172.4-4.05Q172.91-4.15 173.45-5.3 173.99-6.45 174.21-7.67 174.43-8.89 174.51-9.33 174.6-9.77 174.77-10.11L174.77-10.11Q175.16-10.84 176.09-11.16L176.09-11.16Q174.62-11.62 174.37-13.01 174.11-14.4 173.87-15.16 173.62-15.92 173.35-16.36L173.35-16.36Q172.89-17.14 172.26-17.26ZM191.54-3.61Q189.51-5.71 188.26-8.67 187-11.62 186.71-14.26 186.41-16.89 185.82-17.91 185.22-18.92 184.12-19.46L184.12-19.46Q186.24-20.46 186.62-23.57 187-26.68 188.34-29.39 189.68-32.1 191.76-34.03L191.76-34.03Q196.13-38.09 202.28-38.09L202.28-38.09Q208.61-38.09 212.76-34.33L212.76-34.33Q217.08-30.42 217.83-23.39L217.83-23.39Q218.15-20.46 220.32-19.46L220.32-19.46Q218.2-18.41 217.81-15.01 217.42-11.62 216.27-8.67 215.12-5.71 213.2-3.61L213.2-3.61Q209.17 0.73 202.31 0.73L202.31 0.73Q195.74 0.73 191.54-3.61L191.54-3.61ZM199.52-19.46L199.52-19.46Q196.84-18.16 196.84-15.23L196.84-15.23 196.84-7.98Q196.84-4 200.13-2.88L200.13-2.88Q201.11-2.54 202.26-2.54 203.41-2.54 204.37-2.88 205.33-3.22 206.04-3.91L206.04-3.91Q207.51-5.32 207.51-7.98L207.51-7.98 207.51-15.23Q207.51-18.16 204.87-19.46L204.87-19.46Q207.51-20.68 207.51-23.39L207.51-23.39 207.51-29.22Q207.51-31.93 205.92-33.45L205.92-33.45Q204.43-34.84 202.23-34.84L202.23-34.84Q198.5-34.84 197.25-31.71L197.25-31.71Q196.84-30.66 196.84-29.22L196.84-29.22 196.84-23.39Q196.84-20.63 199.52-19.46ZM209.75-30.52L209.75-30.52Q210.44-28.47 210.44-23.46L210.44-23.46Q210.44-20.63 210.19-20.36 209.95-20.09 209.7-19.92L209.7-19.92Q209.26-19.63 208.75-19.46L208.75-19.46Q210.22-18.8 210.29-18.19L210.29-18.19Q210.53-15.8 210.53-14.05 210.53-12.3 210.49-11.24 210.44-10.18 210.34-9.28L210.34-9.28Q210.14-7.35 209.85-6.47L209.85-6.47Q211.76-7.06 211.97-12.11L211.97-12.11Q212.1-14.94 212.1-18.42 212.1-21.9 212.02-23.65 211.95-25.39 211.8-26.51L211.8-26.51Q211.51-29.1 210.58-30.1L210.58-30.1Q210.31-30.4 209.75-30.52ZM192.15-6.47L192.15-6.47Q192.52-6.62 192.52-6.98L192.52-6.98Q192.52-7.52 192-8.67L192-8.67Q190.71-11.62 190.71-19.46L190.71-19.46Q190.71-25.17 192.08-29.17L192.08-29.17Q192.25-29.79 192.25-30.1 192.25-30.42 191.93-30.52L191.93-30.52Q190.78-29.08 190.3-27.66L190.3-27.66Q189.39-25.07 188.85-20.65L188.85-20.65Q188.78-20.02 187.41-19.46L187.41-19.46Q188.78-18.85 188.85-18.21L188.85-18.21Q189.73-10.64 191.1-8.11L191.1-8.11Q191.56-7.2 192.15-6.47Z" fill="#5314a4" data-fill-palette-color="primary"></path></g></svg></g></svg></g><g transform="matrix(1,0,0,1,0,89.03857325336313)"><svg viewBox="0 0 232.209792 37.827927105652876" height="37.827927105652876" width="232.209792"><g transform="matrix(1,0,0,1,0,0)"><svg width="232.209792" viewBox="2.299999952316284 -32.599998474121094 283.82000732421875 45.099998474121094" height="37.827927105652876" data-palette-color="#2b035f"><path d="M14.2-25L19.2-25 19.2-1.05Q20.45-1.45 21.43-1.95 22.4-2.45 23.13-3.3 23.85-4.15 24.33-5.5 24.8-6.85 25.05-8.95L25.05-8.95 26.9-8.95Q26.5-6.3 25.88-4.63 25.25-2.95 24.33-1.93 23.4-0.9 22.13-0.33 20.85 0.25 19.2 0.75L19.2 0.75 19.2 3.95Q19.2 6.3 18.7 7.93 18.2 9.55 17.32 10.58 16.45 11.6 15.33 12.05 14.2 12.5 12.95 12.5L12.95 12.5Q10.45 12.5 9.05 11.08 7.65 9.65 7.65 7.6L7.65 7.6Q7.65 6.3 8.22 5.25 8.8 4.2 9.73 3.33 10.65 2.45 11.83 1.78 13 1.1 14.2 0.6L14.2 0.6 14.2-2.55Q13.2-1.1 11.93-0.4 10.65 0.3 9.35 0.3L9.35 0.3Q7.9 0.3 6.6-0.1 5.3-0.5 4.35-1.43 3.4-2.35 2.85-3.83 2.3-5.3 2.3-7.45L2.3-7.45 2.3-25 7.3-25 7.3-8Q7.3-5.55 8.15-4.53 9-3.5 10.3-3.5L10.3-3.5Q11-3.5 11.7-3.85 12.4-4.2 12.95-4.88 13.5-5.55 13.85-6.5 14.2-7.45 14.2-8.7L14.2-8.7 14.2-25ZM12 9.9L12 9.9Q13.35 9.9 13.78 8.88 14.2 7.85 14.2 6.1L14.2 6.1 14.2 2.6Q11.7 3.75 10.65 4.88 9.6 6 9.6 7.4L9.6 7.4Q9.6 8.55 10.23 9.22 10.85 9.9 12 9.9ZM34.15-25.25L34.15-25.25Q36.1-25.25 37.5-24.65 38.9-24.05 39.8-22.98 40.7-21.9 41.22-20.45 41.75-19 42-17.35L42-17.35 42.3-17.35Q44.4-17.35 46.15-18.2 47.9-19.05 49.15-20.35L49.15-20.35 49.9-19Q48.9-17.4 46.72-16.35 44.55-15.3 42.25-14.9L42.25-14.9Q42.25-14.4 42.27-13.9 42.3-13.4 42.3-12.85L42.3-12.85Q42.3-6.7 40.05-3.2 37.8 0.3 33.75 0.3L33.75 0.3Q32.1 0.3 30.42-0.3 28.75-0.9 27.4-2.3 26.05-3.7 25.22-5.9 24.4-8.1 24.4-11.35L24.4-11.35Q24.4-13.55 24.87-16 25.35-18.45 26.47-20.5 27.6-22.55 29.47-23.9 31.35-25.25 34.15-25.25ZM34.65-3.5L34.65-3.5Q37.3-3.5 38.55-6.13 39.8-8.75 39.8-13.55L39.8-13.55Q39.8-13.85 39.8-14.15 39.8-14.45 39.75-14.75L39.75-14.75Q38.3-14.85 37.67-15.4 37.05-15.95 37.05-17.25L37.05-17.25Q37.05-18.4 37.55-18.88 38.05-19.35 39.05-19.4L39.05-19.4Q38.45-21.15 37.52-21.83 36.6-22.5 35.45-22.5L35.45-22.5Q33.9-22.5 32.82-21.48 31.75-20.45 31.07-18.85 30.4-17.25 30.1-15.33 29.8-13.4 29.8-11.55L29.8-11.55Q29.8-9.1 30.25-7.55 30.7-6 31.4-5.1 32.1-4.2 32.95-3.85 33.8-3.5 34.65-3.5ZM57.85-25L62.85-25 62.85-8Q62.85-7.5 62.9-6.75 62.95-6 63.17-5.28 63.4-4.55 63.85-4.03 64.3-3.5 65.1-3.5L65.1-3.5Q67.55-3.5 68.7-8.95L68.7-8.95 70.55-8.95Q70-5.8 69.15-3.98 68.3-2.15 67.35-1.2 66.4-0.25 65.4 0.03 64.4 0.3 63.6 0.3L63.6 0.3Q62.45 0.3 61.62-0.1 60.8-0.5 60.22-1.15 59.65-1.8 59.3-2.65 58.95-3.5 58.75-4.4L58.75-4.4Q57.8-1.95 56.25-0.83 54.7 0.3 53 0.3L53 0.3Q51.55 0.3 50.25-0.1 48.95-0.5 48-1.43 47.05-2.35 46.5-3.83 45.95-5.3 45.95-7.45L45.95-7.45 45.95-25 50.95-25 50.95-8Q50.95-5.55 51.8-4.53 52.65-3.5 53.95-3.5L53.95-3.5Q54.65-3.5 55.35-3.88 56.05-4.25 56.6-4.95 57.15-5.65 57.5-6.65 57.85-7.65 57.85-8.95L57.85-8.95 57.85-25ZM68.64-25L73.64-25 73.64-20.8Q74.24-21.7 74.82-22.5 75.39-23.3 76.09-23.9 76.79-24.5 77.64-24.88 78.49-25.25 79.54-25.25L79.54-25.25Q81.24-25.25 82.04-24.38 82.84-23.5 82.84-22.25L82.84-22.25Q82.84-21.5 82.59-21 82.34-20.5 81.99-20.2 81.64-19.9 81.24-19.78 80.84-19.65 80.54-19.65L80.54-19.65Q80.09-19.65 79.82-19.85 79.54-20.05 79.27-20.28 78.99-20.5 78.64-20.7 78.29-20.9 77.74-20.9L77.74-20.9Q76.59-20.9 75.54-20.1 74.49-19.3 73.64-18.4L73.64-18.4 73.64 0 68.64 0 68.64-25ZM96.19-25L101.19-25 101.19-21.2Q101.94-22.55 102.71-23.38 103.49-24.2 104.29-24.6 105.09-25 105.81-25.13 106.54-25.25 107.19-25.25L107.19-25.25Q109.44-25.25 110.81-24.4 112.19-23.55 112.89-22.23 113.59-20.9 113.81-19.33 114.04-17.75 114.04-16.3L114.04-16.3Q114.04-15.4 113.99-14.33 113.94-13.25 113.89-12.13 113.84-11 113.79-9.88 113.74-8.75 113.74-7.8L113.74-7.8Q113.74-7.4 113.79-6.68 113.84-5.95 114.04-5.25 114.24-4.55 114.69-4.03 115.14-3.5 115.99-3.5L115.99-3.5Q117.14-3.5 118.06-4.8 118.99-6.1 119.59-8.95L119.59-8.95 121.44-8.95Q120.89-5.8 120.04-3.98 119.19-2.15 118.24-1.2 117.29-0.25 116.34 0.03 115.39 0.3 114.59 0.3L114.59 0.3Q112.99 0.3 111.89-0.33 110.79-0.95 110.09-2 109.39-3.05 109.06-4.45 108.74-5.85 108.74-7.35L108.74-7.35Q108.74-7.8 108.76-9.03 108.79-10.25 108.81-11.65 108.84-13.05 108.86-14.3 108.89-15.55 108.89-16.05L108.89-16.05Q108.89-17.65 108.64-18.7 108.39-19.75 107.94-20.35 107.49-20.95 106.91-21.2 106.34-21.45 105.69-21.45L105.69-21.45Q104.14-21.45 103.01-20.2 101.89-18.95 101.19-16L101.19-16 101.19 0 96.19 0 96.19-25ZM135.19-18.75L135.19-18.75Q135.19-15.25 132.31-12.9 129.44-10.55 124.34-10L124.34-10Q124.54-8 125.06-6.75 125.59-5.5 126.34-4.78 127.09-4.05 128.06-3.78 129.04-3.5 130.09-3.5L130.09-3.5Q132.49-3.5 134.59-4.75 136.69-6 137.99-8.95L137.99-8.95 139.59-8.95Q138.94-7.1 137.79-5.43 136.64-3.75 135.09-2.48 133.54-1.2 131.74-0.45 129.94 0.3 128.04 0.3L128.04 0.3Q126.29 0.3 124.66-0.3 123.04-0.9 121.79-2.27 120.54-3.65 119.76-5.85 118.99-8.05 118.99-11.25L118.99-11.25Q118.99-13.35 119.46-15.8 119.94-18.25 121.06-20.35 122.19-22.45 124.01-23.85 125.84-25.25 128.54-25.25L128.54-25.25Q129.79-25.25 130.96-24.98 132.14-24.7 133.09-23.98 134.04-23.25 134.61-22 135.19-20.75 135.19-18.75ZM124.29-11.95L124.29-11.95Q127.84-12.5 129.91-14.45 131.99-16.4 131.99-19.25L131.99-19.25Q131.99-21.15 131.34-21.98 130.69-22.8 129.49-22.8L129.49-22.8Q128.19-22.8 127.21-21.8 126.24-20.8 125.59-19.23 124.94-17.65 124.61-15.73 124.29-13.8 124.29-11.95ZM151.23-19.3L153.23-13.75Q153.93-14.7 154.61-15.75 155.28-16.8 155.83-17.9 156.38-19 156.71-20.05 157.03-21.1 157.03-22.1L157.03-22.1Q157.03-22.35 157.03-22.55 157.03-22.75 156.98-22.95L156.98-22.95Q156.53-22.75 155.93-22.75L155.93-22.75Q154.83-22.75 154.01-23.48 153.18-24.2 153.18-25.4L153.18-25.4Q153.18-26.5 153.93-27.25 154.68-28 155.83-28L155.83-28Q157.28-28 158.28-26.73 159.28-25.45 159.28-23.05L159.28-23.05Q159.28-20.4 157.91-17.7 156.53-15 154.03-11.55L154.03-11.55 155.03-8.9Q155.93-6.45 156.83-4.98 157.73-3.5 159.03-3.5L159.03-3.5Q159.78-3.5 160.46-3.98 161.13-4.45 161.66-5.2 162.18-5.95 162.51-6.9 162.83-7.85 162.93-8.8L162.93-8.8 164.43-8.8Q164.18-5.85 163.31-4.08 162.43-2.3 161.31-1.33 160.18-0.35 159.03-0.03 157.88 0.3 157.08 0.3L157.08 0.3Q154.83 0.3 153.21-1.73 151.58-3.75 149.93-8.25L149.93-8.25 144.68 0 141.28 0 149.03-10.8 146.83-17Q145.93-19.55 145.33-20.53 144.73-21.5 144.03-21.5L144.03-21.5Q141.23-21.5 139.73-8.85L139.73-8.85 137.88-8.85Q138.18-10.35 138.46-12.15 138.73-13.95 139.08-15.78 139.43-17.6 139.93-19.3 140.43-21 141.21-22.33 141.98-23.65 143.03-24.45 144.08-25.25 145.58-25.25L145.58-25.25Q147.78-25.25 149.03-23.58 150.28-21.9 151.23-19.3L151.23-19.3ZM162.88-31.9L167.88-32.6 167.88-25 171.73-25 171.73-23.25 167.88-23.25 167.88-8Q167.88-7.4 167.93-6.63 167.98-5.85 168.21-5.15 168.43-4.45 168.91-3.98 169.38-3.5 170.23-3.5L170.23-3.5Q171.58-3.5 172.81-4.85 174.03-6.2 174.73-8.95L174.73-8.95 176.58-8.95Q175.73-5.8 174.76-3.98 173.78-2.15 172.73-1.2 171.68-0.25 170.66 0.03 169.63 0.3 168.78 0.3L168.78 0.3Q166.98 0.3 165.83-0.38 164.68-1.05 164.03-2.1 163.38-3.15 163.13-4.42 162.88-5.7 162.88-6.95L162.88-6.95 162.88-23.25 161.18-23.25 161.18-25 162.88-25 162.88-31.9ZM202.53-8.95L204.63-8.95Q203.18-6.95 201.65-5.63 200.13-4.3 198.68-3.3L198.68-3.3Q198.13-2.3 197.28-1.63 196.43-0.95 195.45-0.53 194.48-0.1 193.5 0.1 192.53 0.3 191.73 0.3L191.73 0.3Q189.53 0.3 188.1-0.4 186.68-1.1 185.83-2.18 184.98-3.25 184.63-4.58 184.28-5.9 184.28-7.1L184.28-7.1Q184.28-8.4 184.8-9.38 185.33-10.35 186.08-10.75L186.08-10.75Q187.38-14.5 188.63-18.18 189.88-21.85 190.28-25.55L190.28-25.55 195.33-26.55Q196.53-21.8 197.3-18.8 198.08-15.8 198.55-13.73 199.03-11.65 199.25-10.08 199.48-8.5 199.48-6.6L199.48-6.6Q200.33-7.15 201.08-7.78 201.83-8.4 202.53-8.95L202.53-8.95ZM194.18-6.95L194.18-6.95Q194.18-8.5 194-9.7 193.83-10.9 193.48-12.35 193.13-13.8 192.6-15.88 192.08-17.95 191.38-21.2L191.38-21.2Q191.08-18.4 190.15-15.85 189.23-13.3 188.48-10.6L188.48-10.6Q188.93-10.3 189.25-9.78 189.58-9.25 189.58-8.4L189.58-8.4Q189.58-7.45 189.08-6.95 188.58-6.45 187.98-6.45L187.98-6.45Q187.18-6.45 186.63-7.15L186.63-7.15Q187.03-5.4 188.03-4.42 189.03-3.45 190.68-3.45L190.68-3.45Q192.28-3.45 193.23-4.28 194.18-5.1 194.18-6.95ZM202.47-26.85L207.52-26.85 207.52-23Q208.47-24 209.75-24.63 211.02-25.25 212.72-25.25L212.72-25.25Q214.47-25.25 215.97-24.5 217.47-23.75 218.6-22.23 219.72-20.7 220.37-18.38 221.02-16.05 221.02-12.85L221.02-12.85Q221.02-6.6 218.67-3.15 216.32 0.3 212.42 0.3L212.42 0.3Q210.77 0.3 209.6-0.33 208.42-0.95 207.52-2.1L207.52-2.1 207.52 11.25 202.47 12.5 202.47-26.85ZM210.97-22L210.97-22Q209.87-22 209-21.38 208.12-20.75 207.52-19.6L207.52-19.6 207.52-4.6Q208.22-3.7 209.1-3.3 209.97-2.9 210.82-2.9L210.82-2.9Q212.07-2.9 213.02-3.7 213.97-4.5 214.65-5.88 215.32-7.25 215.67-9.1 216.02-10.95 216.02-13.05L216.02-13.05Q216.02-15.65 215.55-17.38 215.07-19.1 214.32-20.13 213.57-21.15 212.67-21.58 211.77-22 210.97-22ZM237.07-25L242.07-25 242.07-8Q242.07-7.5 242.12-6.75 242.17-6 242.4-5.28 242.62-4.55 243.07-4.03 243.52-3.5 244.32-3.5L244.32-3.5Q246.77-3.5 247.92-8.95L247.92-8.95 249.77-8.95Q249.22-5.8 248.37-3.98 247.52-2.15 246.57-1.2 245.62-0.25 244.62 0.03 243.62 0.3 242.82 0.3L242.82 0.3Q241.67 0.3 240.85-0.1 240.02-0.5 239.45-1.15 238.87-1.8 238.52-2.65 238.17-3.5 237.97-4.45L237.97-4.45Q237.22-2.5 235.55-1.1 233.87 0.3 231.47 0.3L231.47 0.3Q229.97 0.3 228.45-0.3 226.92-0.9 225.7-2.27 224.47-3.65 223.7-5.83 222.92-8 222.92-11.15L222.92-11.15Q222.92-13.45 223.45-15.95 223.97-18.45 225.12-20.5 226.27-22.55 228.07-23.9 229.87-25.25 232.42-25.25L232.42-25.25Q233.02-25.25 233.7-25.13 234.37-25 235-24.7 235.62-24.4 236.17-23.88 236.72-23.35 237.07-22.6L237.07-22.6 237.07-25ZM232.72-3.5L232.72-3.5Q233.47-3.5 234.25-3.93 235.02-4.35 235.65-5.08 236.27-5.8 236.67-6.8 237.07-7.8 237.07-8.95L237.07-8.95 237.07-20.35Q236.72-21.15 236-21.83 235.27-22.5 234.12-22.5L234.12-22.5Q232.52-22.5 231.37-21.43 230.22-20.35 229.52-18.73 228.82-17.1 228.5-15.18 228.17-13.25 228.17-11.5L228.17-11.5Q228.17-7.2 229.35-5.35 230.52-3.5 232.72-3.5ZM259.22-17.35L259.22-17.35Q259.62-17.7 259.84-18.48 260.07-19.25 260.07-19.95L260.07-19.95Q260.07-21.1 259.34-21.85 258.62-22.6 257.32-22.6L257.32-22.6Q255.97-22.6 255.07-21.6 254.17-20.6 253.62-19.07 253.07-17.55 252.84-15.68 252.62-13.8 252.62-12L252.62-12Q252.62-9.35 253.09-7.7 253.57-6.05 254.37-5.13 255.17-4.2 256.24-3.85 257.32-3.5 258.52-3.5L258.52-3.5Q261.17-3.5 262.99-4.83 264.82-6.15 266.12-8.95L266.12-8.95 267.82-8.95Q267.22-7.1 266.12-5.43 265.02-3.75 263.57-2.48 262.12-1.2 260.42-0.45 258.72 0.3 256.87 0.3L256.87 0.3Q255.12 0.3 253.42-0.3 251.72-0.9 250.37-2.27 249.02-3.65 248.17-5.88 247.32-8.1 247.32-11.35L247.32-11.35Q247.32-13.45 247.69-15.88 248.07-18.3 249.09-20.38 250.12-22.45 251.92-23.85 253.72-25.25 256.57-25.25L256.57-25.25Q259.72-25.25 261.37-23.73 263.02-22.2 263.02-19.25L263.02-19.25Q263.02-18 262.54-17.15 262.07-16.3 261.07-16.3L261.07-16.3Q259.97-16.3 259.22-17.35ZM281.72-18.75L281.72-18.75Q281.72-15.25 278.84-12.9 275.97-10.55 270.87-10L270.87-10Q271.07-8 271.59-6.75 272.12-5.5 272.87-4.78 273.62-4.05 274.59-3.78 275.57-3.5 276.62-3.5L276.62-3.5Q279.02-3.5 281.12-4.75 283.22-6 284.52-8.95L284.52-8.95 286.12-8.95Q285.47-7.1 284.32-5.43 283.17-3.75 281.62-2.48 280.07-1.2 278.27-0.45 276.47 0.3 274.57 0.3L274.57 0.3Q272.82 0.3 271.19-0.3 269.57-0.9 268.32-2.27 267.07-3.65 266.29-5.85 265.52-8.05 265.52-11.25L265.52-11.25Q265.52-13.35 265.99-15.8 266.47-18.25 267.59-20.35 268.72-22.45 270.54-23.85 272.37-25.25 275.07-25.25L275.07-25.25Q276.32-25.25 277.49-24.98 278.67-24.7 279.62-23.98 280.57-23.25 281.14-22 281.72-20.75 281.72-18.75ZM270.82-11.95L270.82-11.95Q274.37-12.5 276.44-14.45 278.52-16.4 278.52-19.25L278.52-19.25Q278.52-21.15 277.87-21.98 277.22-22.8 276.02-22.8L276.02-22.8Q274.72-22.8 273.74-21.8 272.77-20.8 272.12-19.23 271.47-17.65 271.14-15.73 270.82-13.8 270.82-11.95Z" opacity="1" transform="matrix(1,0,0,1,0,0)" fill="#2b035f" class="slogan-text-1" data-fill-palette-color="secondary" id="text-1"></path></svg></g></svg></g></svg></g></svg></g><g><svg viewBox="0 0 176.4322047760102 175.32950349616013" height="175.32950349616013" width="176.4322047760102"><g><svg xmlns="http://www.w3.org/2000/svg" xmlns:xlink="http://www.w3.org/1999/xlink" version="1.1" x="0" y="0" viewBox="0 0 100 99.375" enable-background="new 0 0 100 99.375" xml:space="preserve" width="176.4322047760102" height="175.32950349616013" class="icon-icon-0" data-fill-palette-color="accent" id="icon-0"><path d="M10.924 84.883v14.492H3.333V46.328c0-2.096 1.699-3.815 3.795-3.815l0 0c2.123 0 3.795 1.719 3.795 3.815v31.367H96.55v21.68h-7.656V84.883H10.924z" fill="#de84e8" data-fill-palette-color="accent"></path><path d="M22.624 61.614c3.796 0 6.869-3.072 6.869-6.888 0-3.789-3.073-6.862-6.869-6.862-3.815 0-6.888 3.073-6.888 6.862C15.736 58.542 18.809 61.614 22.624 61.614z" fill="#de84e8" data-fill-palette-color="accent"></path><path d="M96.667 71.992l-0.026-9.466c-0.026-3.008-2.552-5.078-5.481-5.443l-54.05-5.377c-0.117-0.026-0.208-0.078-0.306-0.078-1.862 0-3.379 1.523-3.379 3.372v10.208H19.284c-1.888 0-3.398 1.537-3.398 3.398 0 1.875 1.511 3.386 3.398 3.386H96.667z" fill="#de84e8" data-fill-palette-color="accent"></path><polygon points="100,24.883 50.065,0.065 50.045,0 50,0.026 49.955,0 49.935,0.065 0,24.883 4.16,33.255 50,10.469 95.84,33.255 " fill="#de84e8" data-fill-palette-color="accent"></polygon></svg></g></svg></g></svg></g><defs></defs></svg><rect width="395.52" height="113.22609129269586" fill="none" stroke="none" visibility="hidden"></rect></g></svg></g></svg>