<svg xmlns="http://www.w3.org/2000/svg" version="1.1" xmlns:xlink="http://www.w3.org/1999/xlink" xmlns:svgjs="http://svgjs.dev/svgjs" width="128" height="128" viewBox="0 0 128 128"><g transform="matrix(0.8046875,0,0,0.8046875,12.760752631578946,12.437247927631574)"><svg viewBox="0 0 95 95" data-background-color="#ffffff" preserveAspectRatio="xMidYMid meet" height="128" width="128" xmlns="http://www.w3.org/2000/svg" xmlns:xlink="http://www.w3.org/1999/xlink"><g id="tight-bounds" transform="matrix(1,0,0,1,-0.24049999999999727,0.057878125000002)"><svg viewBox="0 0 95.481 94.88424375" height="94.88424375" width="95.481"><g><svg viewBox="0 0 95.481 94.88424375" height="94.88424375" width="95.481"><g><svg viewBox="0 0 95.481 94.88424375" height="94.88424375" width="95.481"><g id="textblocktransform"><svg viewBox="0 0 95.481 94.88424375" height="94.88424375" width="95.481" id="textblock"><g><svg viewBox="0 0 95.481 94.88424375" height="94.88424375" width="95.481"><g><svg viewBox="0 0 95.481 94.88424375" height="94.88424375" width="95.481"><g><svg xmlns="http://www.w3.org/2000/svg" xmlns:xlink="http://www.w3.org/1999/xlink" version="1.1" x="0" y="0" viewBox="0 0 100 99.375" enable-background="new 0 0 100 99.375" xml:space="preserve" width="95.481" height="94.88424375" class="icon-icon-0" data-fill-palette-color="accent" id="icon-0"><path d="M10.924 84.883v14.492H3.333V46.328c0-2.096 1.699-3.815 3.795-3.815l0 0c2.123 0 3.795 1.719 3.795 3.815v31.367H96.55v21.68h-7.656V84.883H10.924z" fill="#de84e8" data-fill-palette-color="accent"></path><path d="M22.624 61.614c3.796 0 6.869-3.072 6.869-6.888 0-3.789-3.073-6.862-6.869-6.862-3.815 0-6.888 3.073-6.888 6.862C15.736 58.542 18.809 61.614 22.624 61.614z" fill="#de84e8" data-fill-palette-color="accent"></path><path d="M96.667 71.992l-0.026-9.466c-0.026-3.008-2.552-5.078-5.481-5.443l-54.05-5.377c-0.117-0.026-0.208-0.078-0.306-0.078-1.862 0-3.379 1.523-3.379 3.372v10.208H19.284c-1.888 0-3.398 1.537-3.398 3.398 0 1.875 1.511 3.386 3.398 3.386H96.667z" fill="#de84e8" data-fill-palette-color="accent"></path><polygon points="100,24.883 50.065,0.065 50.045,0 50,0.026 49.955,0 49.935,0.065 0,24.883 4.16,33.255 50,10.469 95.84,33.255 " fill="#de84e8" data-fill-palette-color="accent"></polygon></svg></g></svg></g></svg></g></svg></g></svg></g></svg></g><defs></defs></svg><rect width="95.481" height="94.88424375" fill="none" stroke="none" visibility="hidden"></rect></g></svg></g></svg>